<svg width="32" height="32" viewBox="0 0 32 32" fill="none" xmlns="http://www.w3.org/2000/svg">
  <!-- Left Speech Bubble - Violet -->
  <path
    d="M14.5 5.5C11.5 8.5 7.5 13.5 7.5 19.5C7.5 23.5 10.5 26.5 14.5 26.5C15.8 26.5 17 25.5 17.8 24.2L14.2 11.5L14.5 5.5Z"
    fill="#6D28D9"
  />
  
  <!-- Right Speech Bubble - Pink -->
  <path
    d="M17.5 5.5C20.5 8.5 24.5 13.5 24.5 19.5C24.5 23.5 21.5 26.5 17.5 26.5C16.2 26.5 15 25.5 14.2 24.2L17.8 11.5L17.5 5.5Z"
    fill="#EC4899"
  />

  <!-- Overlap Union Area (Chevron center) -->
  <path
    d="M14.5 5.5C15.5 7.5 16.5 11 16.5 14C16.5 17 15.5 21 14.2 24.2C15 25.5 16.2 26.5 17.5 26.5C16.5 25.5 15.5 21 15.5 17C15.5 14 16.5 7.5 14.5 5.5Z"
    fill="#D946EF"
  />
  
  <!-- Speech bubble tail details pointing inwards/downwards -->
  <path
    d="M10.5 24.5L13.5 26.5H9.5L10.5 24.5Z"
    fill="#5B21B6"
  />
  <path
    d="M21.5 24.5L18.5 26.5H22.5L21.5 24.5Z"
    fill="#EC4899"
  />
</svg>